HIERARCHY
ROOT hip
{
	OFFSET 0.000000 0.000000 0.000000 
	CHANNELS 6 Xposition Yposition Zposition Xrotation Zrotation Yrotation
	JOINT abdomen
	{
		OFFSET 0.000000 3.402643 0.000000 
		CHANNELS 3 Xrotation Zrotation Yrotation
		JOINT chest
		{
			OFFSET 0.000000 8.438565 -0.680529 
			CHANNELS 3 Xrotation Zrotation Yrotation
			JOINT neck
			{
				OFFSET 0.000000 10.207942 -0.272212 
				CHANNELS 3 Xrotation Zrotation Yrotation
				JOINT head
				{
					OFFSET 0.000000 3.130431 0.000000 
					CHANNELS 3 Xrotation Zrotation Yrotation
					End Site
					{
						OFFSET 0.000000 3.130435 0.000000 
					}
				}
			}
			JOINT lCollar
			{
				OFFSET 3.470700 6.669187 -0.816635 
				CHANNELS 3 Yrotation Zrotation Xrotation
				JOINT lShldr
				{
					OFFSET 3.198488 0.000000 0.000000 
					CHANNELS 3 Zrotation Yrotation Xrotation
					JOINT lForeArm
					{
						OFFSET 10.139888 0.000000 0.000000 
						CHANNELS 3 Yrotation Zrotation Xrotation
						JOINT lHand
						{
							OFFSET 8.370511 0.000000 0.000000 
							CHANNELS 3 Zrotation Yrotation Xrotation
							End Site
							{
								OFFSET 4.083176 0.000000 0.000000 
							}
						}
					}
				}
			}
			JOINT rCollar
			{
				OFFSET -3.470700 6.669187 -0.816635 
				CHANNELS 3 Yrotation Zrotation Xrotation
				JOINT rShldr
				{
					OFFSET -3.198488 0.000000 0.000000 
					CHANNELS 3 Zrotation Yrotation Xrotation
					JOINT rForeArm
					{
						OFFSET -10.139888 0.000000 0.000000 
						CHANNELS 3 Yrotation Zrotation Xrotation
						JOINT rHand
						{
							OFFSET -8.370511 0.000000 0.000000 
							CHANNELS 3 Zrotation Yrotation Xrotation
							End Site
							{
								OFFSET -4.083176 0.000000 0.000000 
							}
						}
					}
				}
			}
		}
	}
	JOINT lThigh
	{
		OFFSET 5.308129 -1.633274 1.361059 
		CHANNELS 3 Xrotation Zrotation Yrotation
		JOINT lShin
		{
			OFFSET -2.041588 -20.007561 0.000000 
			CHANNELS 3 Xrotation Zrotation Yrotation
			JOINT lFoot
			{
				OFFSET 0.000000 -19.190928 -1.224953 
				CHANNELS 3 Xrotation Yrotation Zrotation
				End Site
				{
					OFFSET 0.000000 -2.449906 4.627600 
				}
			}
		}
	}
	JOINT rThigh
	{
		OFFSET -5.308129 -1.633274 1.361059 
		CHANNELS 3 Xrotation Zrotation Yrotation
		JOINT rShin
		{
			OFFSET 2.041588 -20.007561 0.000000 
			CHANNELS 3 Xrotation Zrotation Yrotation
			JOINT rFoot
			{
				OFFSET 0.000000 -19.190928 -1.224953 
				CHANNELS 3 Xrotation Yrotation Zrotation
				End Site
				{
					OFFSET 0.000000 -2.449906 4.627600 
				}
			}
		}
	}
}
MOTION
Frames: 18
Frame Time: 0.016667
-0.922067 26.475761 -7.030981 22.175200 5.175100 12.818600 -7.332130 4.078920 -1.089280 15.447500 -1.468750 0.160557 -5.571860 7.623900 -14.913400 6.936030 7.562370 -6.108280 2.000000 -2.000000 0.000000 -88.117104 -17.844900 -164.723999 65.840401 -0.270805 0.124793 -179.901001 -179.880005 -5.398250 -2.000000 2.000000 0.000000 28.179800 54.877102 152.792999 -41.221100 0.317683 0.090095 -0.055616 0.019722 -143.981995 -73.487411 -18.344807 11.228220 97.939049 -3.353391 5.234539 -50.402905 23.133314 20.059093 -86.828804 -11.090631 13.078580 97.820168 2.424430 -4.884848 -30.149387 -2.392913 -0.751736 
-0.911036 26.334888 -7.059413 21.857901 5.350000 12.806800 -7.017490 3.935880 -1.076720 15.867200 -1.635140 0.192649 -5.578630 7.864960 -15.154600 6.936290 7.591630 -6.204460 2.000000 -2.000000 0.000000 -87.883202 -18.625700 -164.526993 65.859901 -0.270763 0.124812 -179.899994 -179.878998 -5.788870 -2.000000 2.000000 0.000000 31.708500 53.735298 152.431000 -44.678200 0.312064 0.096132 -0.055537 0.019071 -143.748001 -73.409317 -18.406055 11.417364 98.412163 -3.397629 5.219335 -49.986763 23.842916 20.366625 -86.836227 -11.048557 13.345850 98.284363 2.495550 -4.877875 -30.696136 -2.703744 -0.900673 
-0.904404 26.425545 -7.052965 21.609200 5.259210 12.567900 -6.760360 3.583300 -0.978197 16.324900 -2.230240 0.301572 -5.081170 7.959890 -15.283200 7.112630 7.482790 -6.274870 2.000000 -2.000000 0.000000 -87.346497 -19.308800 -164.339996 65.801300 -0.270890 0.124755 -179.899994 -179.878998 -5.945120 -2.000000 2.000000 0.000000 33.651001 53.490799 152.595993 -46.104000 0.309642 0.098522 -0.056446 0.025542 -146.082001 -73.003952 -18.235895 11.174809 98.264137 -3.374053 5.228073 -50.637142 23.178513 20.297512 -86.287727 -10.620115 13.415234 98.076675 2.457321 -4.880386 -30.569990 -2.671430 -0.919713 
-0.895970 26.809519 -7.069524 21.185600 5.484090 12.551600 -6.571840 3.347230 -1.166990 16.598200 -2.377130 0.232665 -4.791450 8.135670 -15.323600 7.309890 7.510210 -6.267310 2.000000 -2.000000 0.000000 -87.464798 -19.925800 -165.070999 65.996597 -0.270465 0.124945 -179.901001 -179.869995 -5.368940 -2.000000 2.000000 0.000000 35.291401 53.078602 153.582001 -47.451599 0.307299 0.100724 -0.056692 0.027026 -146.619003 -71.907402 -18.211859 11.280147 97.126122 -3.222301 5.212853 -50.053986 22.905863 19.824911 -85.245308 -10.475467 13.515383 96.922737 2.328079 -4.879261 -29.848385 -3.478582 -1.349314 
-0.841824 27.439960 -7.066603 20.754299 5.225530 12.211700 -6.404830 3.260500 -1.175220 16.910601 -2.504690 0.237525 -4.205510 7.771340 -15.062500 7.543920 7.273980 -6.163060 2.000000 -2.000000 0.000000 -87.582199 -19.878201 -165.598007 66.406799 -0.269569 0.125340 -179.901001 -179.869995 -5.671670 -2.000000 2.000000 0.000000 37.926399 51.902000 155.757004 -51.191898 0.300531 0.106540 -0.057672 0.032240 -148.514008 -70.410805 -17.819445 11.031815 95.309631 -3.027283 5.204737 -49.422592 22.671513 19.629810 -83.558693 -9.927509 13.266120 94.992371 2.147595 -4.876074 -29.203682 -3.909137 -1.663294 
-0.812584 28.213297 -7.052978 20.164700 4.896810 11.883500 -5.878200 3.640020 -1.323550 17.126600 -2.105600 0.126090 -3.973990 8.409500 -15.213800 7.783300 7.563940 -6.152140 2.000000 -2.000000 0.000000 -88.188004 -19.577400 -166.457993 66.514198 -0.269334 0.125442 -179.901001 -179.880005 -5.456840 -2.000000 2.000000 0.000000 40.708199 50.636101 158.537003 -55.908699 0.291481 0.113226 -0.058438 0.035767 -149.802994 -68.599022 -17.381664 10.616940 93.305588 -2.774353 5.190859 -48.187191 22.992573 19.405594 -81.609436 -9.315526 12.851438 92.875191 1.914975 -4.876799 -28.485186 -4.583250 -2.055866 
-0.824653 29.130762 -7.001548 19.403700 3.961490 10.993600 -5.527480 3.809400 -1.230590 17.243799 -2.144850 0.172867 -3.862780 8.870730 -15.190700 7.873910 7.738370 -6.089810 2.000000 -2.000000 0.000000 -88.392998 -18.750000 -167.621994 66.758301 -0.268799 0.125673 -179.901993 -179.880997 -4.997860 -2.000000 2.000000 0.000000 44.044399 49.255699 160.106003 -60.566898 0.282033 0.119076 -0.056538 0.026109 -146.287003 -66.376022 -15.798944 10.048981 91.007607 -2.495528 5.162663 -46.377834 23.523773 19.034758 -78.997093 -7.825257 11.915450 89.886169 1.645122 -4.872069 -27.383543 -5.164499 -2.349608 
-0.809659 30.203032 -6.969521 18.366501 4.394060 10.139000 -5.575830 3.769050 -1.286420 17.274200 -1.511190 0.037800 -3.758550 9.365860 -15.080300 7.955790 8.000540 -5.983280 2.000000 -2.000000 0.000000 -88.314499 -18.047899 -168.033997 65.986900 -0.270486 0.124936 -179.901993 -179.880005 -5.173640 -2.000000 2.000000 0.000000 47.292999 47.491199 163.054001 -66.045403 0.270358 0.124946 -0.056665 0.026864 -146.559998 -63.427132 -14.937144 10.728249 87.944275 -2.150525 5.110777 -44.639751 23.346256 18.303169 -76.163002 -7.244272 11.802760 86.788216 1.320130 -4.827280 -25.961128 -5.650590 -2.518941 
-0.817741 31.171051 -6.883593 17.051300 3.847120 9.460770 -5.917300 3.582600 -1.263370 17.117701 -1.666920 0.041520 -3.054200 9.382780 -14.963500 8.122360 7.910910 -5.966390 2.000000 -2.000000 0.000000 -88.079498 -16.624201 -168.945007 65.244698 -0.272099 0.124205 -179.904999 -179.873001 -3.718530 -2.000000 2.000000 0.000000 51.367298 44.447399 165.947006 -72.188004 0.256670 0.130169 -0.056172 0.023786 -145.447006 -60.462086 -13.693741 10.421122 85.365852 -1.857257 5.069240 -43.250229 22.855846 17.450537 -72.963486 -6.451952 10.754525 83.820801 1.035246 -4.776650 -24.931406 -6.212204 -2.716443 
-0.863175 32.106266 -6.748450 15.664400 4.015560 8.557270 -6.006750 3.779650 -1.281220 17.177500 -0.672657 -0.097005 -2.696900 10.090900 -14.882700 8.443070 8.306260 -5.832930 2.000000 -2.000000 0.000000 -88.792099 -15.416100 -170.149002 64.824699 -0.273007 0.123782 -179.904999 -179.882996 -3.835730 -2.000000 2.000000 0.000000 53.218201 42.371700 168.250000 -77.988800 0.243300 0.133730 -0.055979 0.022460 -144.968994 -57.175949 -12.786476 10.879651 82.582512 -1.551874 5.001233 -42.278687 22.290998 16.848272 -69.925484 -5.901222 10.329535 81.256882 0.783397 -4.715001 -24.060522 -6.265066 -2.676688 
-0.862739 33.093044 -6.608331 13.350600 3.145250 7.377360 -6.073010 3.420400 -1.218900 17.216299 -0.984653 -0.059729 -2.635890 9.457150 -14.661500 8.299820 7.908780 -5.805480 2.000000 -2.000000 0.000000 -88.371902 -14.237500 -171.451004 63.789600 -0.275233 0.122711 -179.906006 -179.884003 -3.093550 -2.000000 2.000000 0.000000 55.937901 40.130798 170.216995 -83.535698 0.230241 0.135855 -0.055681 0.020238 -144.167999 -53.082321 -11.095697 10.543252 80.064438 -1.246741 4.914129 -41.548725 21.536114 16.218279 -65.531876 -4.658749 8.963675 77.860855 0.492563 -4.640568 -23.092072 -6.317061 -2.662856 
-0.930316 34.079712 -6.403302 11.329200 2.489650 6.543930 -6.434640 3.416670 -1.299440 17.021299 -0.623811 -0.166541 -3.044630 9.927360 -14.655900 8.136420 8.251710 -5.763640 2.000000 -2.000000 0.000000 91.198799 -167.399002 6.729070 62.695801 -0.277564 0.121537 -179.906998 -179.884995 -2.468550 -2.000000 2.000000 0.000000 -122.640999 142.149002 -7.909740 -88.731003 0.217877 0.136691 -0.055508 0.018826 -143.660004 -49.318802 -9.677671 10.388100 77.343590 -0.944419 4.858479 -40.278351 21.255463 15.691403 -61.310051 -3.645193 7.804856 74.535225 0.216015 -4.568293 -22.060616 -6.493119 -2.631257 
-0.991644 34.992908 -6.168167 9.303660 2.178030 5.893940 -6.528660 3.195520 -1.623940 17.265600 -0.185241 -0.389739 -2.162870 9.365250 -14.526600 8.467670 7.926170 -5.760260 2.000000 -2.000000 0.000000 91.032898 -168.585999 4.792700 61.191898 -0.280730 0.119849 -179.908005 -179.886002 -2.351370 -2.000000 2.000000 0.000000 -121.775002 143.606995 -6.663300 -93.799301 0.206437 0.116915 -0.055314 0.017114 -143.044998 -45.419456 -8.752436 10.344672 74.662071 -0.652482 4.771014 -39.428379 20.678505 15.063159 -57.344021 -3.091363 6.741915 71.502106 -0.070908 -4.463253 -21.255430 -6.531479 -2.561618 
-1.017759 35.951714 -5.901621 7.581020 1.577890 5.268760 -6.934540 2.470470 -1.629260 17.245600 -0.984682 -0.362966 -2.231830 9.360280 -14.807200 8.426990 7.829300 -5.891600 2.000000 -2.000000 0.000000 91.570297 -169.753998 3.354410 59.033699 -0.285195 0.117284 -179.908997 -179.886993 -1.589650 -2.000000 2.000000 0.000000 -121.533997 145.130005 -6.828930 -97.822701 0.197570 0.116013 -0.055257 0.016570 -142.848999 -41.690922 -7.741832 10.211855 71.685524 -0.326817 4.639602 -38.838165 19.887257 14.463752 -53.254089 -2.515469 5.473331 67.902214 -0.354164 -4.344837 -20.074106 -6.332181 -2.412747 
-1.063713 36.899178 -5.607914 5.617230 1.525840 4.671750 -7.614490 1.939670 -1.766560 16.806000 -1.071920 -0.466856 -2.428280 8.962390 -14.944900 8.199230 7.744400 -6.035960 2.000000 -2.000000 0.000000 91.492699 -171.615997 1.777760 57.295399 -0.288719 0.115096 -179.910995 -179.878998 -0.818150 -2.000000 2.000000 0.000000 -122.356003 146.242996 -6.899950 -101.260002 0.190059 0.114751 -0.055326 0.017223 -143.084000 -37.532578 -7.049758 10.715005 68.337425 0.014923 4.496983 -37.260803 19.891775 13.844054 -49.106873 -2.193794 4.794621 64.605171 -0.656483 -4.229737 -18.950127 -6.165652 -2.226203 
-1.163678 37.814556 -5.291378 3.672030 0.526261 4.067060 -7.836460 1.676930 -1.903790 17.030500 -1.169660 -0.552945 -3.044270 8.515810 -15.082900 7.883000 7.670060 -6.151650 2.000000 -2.000000 0.000000 91.639503 -172.619003 0.613274 55.488800 -0.292309 0.112711 -179.908997 -179.886993 -1.755670 -2.000000 2.000000 0.000000 -124.329002 146.309006 -7.974330 -104.112000 0.183896 0.113364 -0.055389 0.017794 -143.289001 -33.491596 -5.461030 10.719446 65.284058 0.331654 4.366131 -36.419895 18.720953 12.770761 -44.698078 -0.859981 3.936656 60.729774 -0.929278 -4.052701 -17.792425 -6.335567 -2.178867 
-1.268771 38.676174 -4.957363 2.773490 0.360905 3.816370 -8.416730 1.199050 -2.213690 16.913300 -1.140270 -0.757493 -4.131970 8.004010 -15.290000 7.409350 7.606750 -6.278130 2.000000 -2.000000 0.000000 91.737602 -173.923004 -1.108570 53.193802 -0.296758 0.109519 -179.910004 -179.878998 -0.964634 -2.000000 2.000000 0.000000 52.848301 34.144299 170.268997 -105.928001 0.180009 0.112321 -0.055447 0.018310 -143.473999 -30.333881 -4.886142 11.243773 61.712605 0.622530 4.213794 -35.195580 17.891472 11.840246 -41.563110 -0.420591 3.736458 57.334007 -1.191369 -3.899813 -16.840359 -6.320616 -2.106502 
-1.401924 39.474831 -4.605340 1.709200 0.907799 3.513570 -8.665750 0.519785 -2.370250 17.362801 -1.004300 -0.930299 -5.096180 7.678130 -15.801400 7.104030 7.619390 -6.513000 2.000000 -2.000000 0.000000 91.894096 -174.662003 -2.457990 51.279800 -0.300368 0.106723 -179.910995 -179.878998 -0.710729 -2.000000 2.000000 0.000000 49.244900 35.088902 167.223999 -107.460999 0.176755 0.111346 -0.055702 0.020400 -144.225998 -26.933115 -5.050272 12.165884 57.797649 0.923013 4.040939 -33.175030 18.110493 11.244013 -38.402992 -0.419597 4.280438 54.232128 -1.417380 -3.752976 -15.773113 -6.708745 -2.093760 
